<?xml version="1.0" standalone="no"?>
<!DOCTYPE svg PUBLIC "-//W3C//DTD SVG 20010904//EN"
 "http://www.w3.org/TR/2001/REC-SVG-20010904/DTD/svg10.dtd">
<svg version="1.0" xmlns="http://www.w3.org/2000/svg"
 width="100.000000pt" height="100.000000pt" viewBox="0 0 100.000000 100.000000"
 preserveAspectRatio="xMidYMid meet">

<g transform="translate(0.000000,100.000000) scale(0.100000,-0.100000)"
fill="#000000" stroke="none">
<path d="M380 833 c8 -3 22 -11 30 -17 13 -10 13 -9 1 7 -7 9 -21 17 -30 16
-13 0 -14 -1 -1 -6z"/>
<path d="M346 821 c-3 -5 -14 -7 -24 -4 -20 5 -72 -53 -72 -79 0 -22 22 -38
50 -37 23 1 23 2 -5 8 -33 7 -46 38 -23 55 8 6 17 19 21 30 5 13 13 17 31 12
16 -4 26 -1 30 9 6 16 1 20 -8 6z"/>
<path d="M445 784 c74 -38 68 -73 -14 -76 -39 -1 -41 -2 -12 -5 64 -8 99 14
85 52 -6 15 -58 45 -78 45 -6 0 3 -7 19 -16z"/>
<path d="M651 698 c-18 -5 -51 -21 -74 -35 -36 -23 -46 -25 -111 -19 -51 4
-78 2 -95 -8 l-25 -14 44 -22 44 -22 -25 -19 c-34 -27 -66 -33 -107 -21 -35
11 -72 2 -72 -18 0 -12 75 -70 92 -70 8 0 43 9 77 21 35 11 66 18 69 15 2 -3
-2 -39 -10 -81 -8 -41 -12 -75 -9 -75 4 0 22 11 41 24 27 18 47 47 80 117 24
52 49 97 54 101 6 3 35 21 63 39 51 32 74 63 56 79 -15 14 -58 18 -92 8z m13
-23 c-4 -8 -1 -15 5 -15 7 0 14 7 17 15 7 17 39 20 49 6 7 -13 -30 -47 -86
-77 -42 -23 -50 -34 -89 -120 -37 -83 -68 -124 -91 -124 -14 0 24 146 45 170
l21 25 -25 -21 c-24 -21 -139 -64 -177 -67 -20 -1 -83 41 -83 56 0 9 39 5 85
-8 14 -4 54 16 133 65 118 74 182 110 194 110 4 0 5 -7 2 -15z m-171 -55 c4
-4 -5 -13 -21 -19 -25 -11 -35 -10 -62 4 -26 13 -30 19 -19 26 15 10 89 2 102
-11z"/>
<path d="M545 590 c-3 -5 -1 -10 4 -10 6 0 11 5 11 10 0 6 -2 10 -4 10 -3 0
-8 -4 -11 -10z"/>
<path d="M746 541 c-10 -11 -25 -16 -39 -14 -18 4 -32 -6 -60 -40 -20 -25 -37
-52 -37 -60 0 -28 36 -49 77 -44 l38 4 -40 1 c-62 3 -88 44 -47 74 10 7 21 21
25 31 9 23 36 33 56 20 12 -8 18 -5 26 11 20 39 85 28 85 -14 0 -14 5 -17 21
-13 13 4 26 0 33 -9 6 -8 19 -17 29 -21 23 -9 33 -36 20 -56 -8 -12 -32 -17
-99 -22 l-89 -5 86 -2 c72 -2 89 1 102 16 10 10 17 26 17 34 0 18 -70 78 -90
78 -7 0 -21 11 -32 25 -23 30 -58 32 -82 6z"/>
<path d="M308 273 c6 -2 18 -2 25 0 6 3 1 5 -13 5 -14 0 -19 -2 -12 -5z"/>
<path d="M373 273 c9 -2 25 -2 35 0 9 3 1 5 -18 5 -19 0 -27 -2 -17 -5z"/>
<path d="M508 273 c39 -2 105 -2 145 0 39 1 7 3 -73 3 -80 0 -112 -2 -72 -3z"/>
</g>
</svg>
